<?xml version="1.0" encoding="UTF-8"?>
<svg version="1.1" xmlns="http://www.w3.org/2000/svg" width="355" height="355">
<path d="M0 0 C3.50498911 2.83711771 6.78482545 5.8397857 10 9 C10.57878906 9.56589844 11.15757812 10.13179687 11.75390625 10.71484375 C21.00382923 20.59269884 24.90679351 34.21464096 25.375 47.5 C24.78761472 64.16705729 18.76944016 77.37211668 7 89 C6.37351562 89.64839844 5.74703125 90.29679687 5.1015625 90.96484375 C-6.73570618 102.37756903 -21.84198806 104.59615051 -37.5234375 104.3125 C-52.85233227 103.68405197 -65.65330733 96.07704745 -76 85 C-87.32964208 69.98768268 -90.97673404 54.22085212 -88.5703125 35.69140625 C-85.05523117 19.35278747 -75.10083073 6.87783818 -61.32421875 -2.05078125 C-43.01012538 -12.78959746 -17.46170742 -12.31674005 0 0 Z M-53 12 C-54.0725 12.5775 -55.145 13.155 -56.25 13.75 C-64.76783807 20.71914024 -69.54257679 28.62773037 -73 39 C-74.02656936 52.47738912 -72.42417584 63.44967866 -63.58203125 74.26171875 C-56.75677572 81.76107359 -47.5086924 87.53270926 -37.19140625 88.2734375 C-24.22777446 88.6778025 -14.26517673 86.55611397 -4.03515625 78.015625 C4.43031315 69.63139811 8.76009854 59.73913527 9.25 47.875 C9.03559776 36.25829696 4.86325705 26.55742702 -2.84765625 17.93359375 C-12.32420229 8.92406435 -23.68088694 6.44150073 -36.32421875 6.6484375 C-42.55015587 6.94796712 -47.59343381 8.98074875 -53 12 Z " fill="#000001" transform="translate(211,9)"/>
<path d="M0 0 C12.9057889 10.44660656 21.3299011 21.89224178 24.6875 38.375 C25.98765253 53.45676936 24.07005708 68.25354914 14.75 80.6875 C13.51914726 82.1414284 12.26863659 83.57892032 11 85 C10.37738281 85.75023437 9.75476563 86.50046875 9.11328125 87.2734375 C1.33728093 95.952935 -11.64007036 103.15922504 -23.39990234 104.21557617 C-42.16613929 105.07142768 -56.43569511 102.23905724 -71.125 89.875 C-81.76937145 79.88334944 -88.41634293 66.87622496 -89.203125 52.21484375 C-89.52818558 34.49386611 -85.3095358 20.19651465 -73 7 C-53.57422911 -11.41025842 -22.56101927 -15.91357609 0 0 Z M-64.25 21.25 C-72.05114199 30.81128823 -73.83606554 41.92581616 -73.2265625 53.84667969 C-72.10488236 64.50747586 -64.97301135 74.09311661 -56.85546875 80.6875 C-47.58535195 87.24488788 -36.33777271 90.23500724 -25.0625 88.4375 C-13.500007 85.69416965 -3.95361437 79.58896927 2.75 69.875 C8.98866225 59.55667323 10.34844676 48.77541353 7.9375 37.125 C5.25371037 27.28025768 -0.45423814 18.68730079 -9 13 C-28.63597814 2.65676872 -48.81125363 4.86842943 -64.25 21.25 Z " fill="#000001" transform="translate(210,129)"/>
<path d="M0 0 C11.78899432 9.41690164 20.73017209 21.83926267 23 37 C23.78817727 48.55262261 23.50335438 59.17614825 19 70 C18.74605469 70.70769531 18.49210937 71.41539063 18.23046875 72.14453125 C13.335867 83.98319854 0.42124233 94.81660892 -11 99.8125 C-27.12108363 105.97704015 -43.30125458 105.66441008 -59.22265625 98.5625 C-72.87990668 91.23164042 -83.58143271 79.15338516 -88.50683594 64.42285156 C-92.54625852 50.30213502 -91.48883888 34.16713291 -85 21 C-82.65697864 16.99971964 -80.03156055 13.5020673 -77 10 C-76.25878906 9.12472656 -75.51757812 8.24945312 -74.75390625 7.34765625 C-55.6119881 -13.55443829 -23.12543983 -15.67259825 0 0 Z M-64.75 19.6875 C-73.10405227 29.75121878 -74.83918516 41.11574548 -74.2265625 53.74853516 C-73.18039824 64.14479251 -66.56806111 73.23953714 -58.75 79.75 C-49.60148695 86.51866337 -39.25039808 89.00601796 -28 88 C-15.98838801 85.50352482 -6.03406611 80.25363866 1 70 C6.96121832 58.72619334 9.27612773 46.97696928 6.09375 34.42578125 C1.78117057 23.63051031 -5.04492464 14.85488233 -15.66015625 9.7109375 C-33.23926629 2.51359937 -51.45867556 5.71017172 -64.75 19.6875 Z " fill="#000001" transform="translate(93,10)"/>
<path d="M0 0 C13.38023464 9.71292474 21.66319169 22.50596463 24.48046875 38.82421875 C26.34417828 54.0993282 23.33227384 69.46947855 13.76953125 81.8125 C11.55752893 84.34104748 9.26836681 86.72912241 6.87890625 89.08984375 C6.25242187 89.73824219 5.6259375 90.38664062 4.98046875 91.0546875 C-5.68672791 101.33930538 -20.66765725 105.16262037 -35.12109375 105.08984375 C-51.31759045 103.60874818 -65.09618942 97.34968055 -76.12109375 85.08984375 C-87.4582563 70.09348507 -91.09659023 54.30116667 -88.69140625 35.78125 C-85.5437092 21.15028778 -76.70719855 7.94147688 -64.09472656 -0.22167969 C-43.80566294 -11.98194496 -20.28867402 -12.77835261 0 0 Z M-65.37109375 22.77734375 C-72.48445707 33.18908225 -74.92066076 43.67101975 -73.12109375 56.08984375 C-70.05834912 67.62704704 -62.99540958 77.2962046 -52.8046875 83.5 C-42.35315341 89.11013488 -31.15313751 90.80086155 -19.609375 87.3359375 C-17.33855346 86.3887711 -15.25299817 85.31706548 -13.12109375 84.08984375 C-12.36054688 83.66703125 -11.6 83.24421875 -10.81640625 82.80859375 C-1.1845086 76.97108002 5.39124723 67.54633861 8.12890625 56.65234375 C10.21697258 45.62885847 8.53380593 35.07560453 2.81640625 25.33984375 C-3.48142291 16.15164248 -13.05099873 9.19200465 -24.12109375 7.08984375 C-40.66866385 5.86279936 -54.4218835 9.38262462 -65.37109375 22.77734375 Z " fill="#000001" transform="translate(211.12109375,249.91015625)"/>
<path d="M0 0 C10.91025374 9.33528272 19.84926285 21.45208927 22 36 C22.78676896 47.54429522 22.51699148 58.18755001 18 69 C17.58427734 70.09634766 17.58427734 70.09634766 17.16015625 71.21484375 C14.46834704 77.47919238 9.72658679 82.19705478 5 87 C3.91138672 88.10794922 3.91138672 88.10794922 2.80078125 89.23828125 C-7.38794179 98.9514086 -20.59118382 103.0485686 -34.5 103.375 C-51.16205315 102.95124483 -65.25746274 96.83100611 -76.72045898 84.82617188 C-80.39661141 80.82020393 -83.78324578 77.01179216 -86 72 C-86.46019531 70.99453125 -86.92039062 69.9890625 -87.39453125 68.953125 C-92.69655316 55.57391819 -93.74111427 38.93611588 -88.1875 25.45703125 C-87.5996875 24.24080078 -87.5996875 24.24080078 -87 23 C-86.4740625 21.83017578 -86.4740625 21.83017578 -85.9375 20.63671875 C-82.72870428 14.18570235 -78.01871913 9.1060012 -73 4 C-72.43410156 3.42121094 -71.86820313 2.84242188 -71.28515625 2.24609375 C-51.97865148 -15.83310265 -20.6057353 -15.24259872 0 0 Z M-65.75 18.6875 C-74.10405227 28.75121878 -75.83918516 40.11574548 -75.2265625 52.74853516 C-74.17820789 63.16655905 -67.56047383 72.27362327 -59.6875 78.75 C-49.78041179 86.06754576 -40.15684582 87.76690383 -28 87 C-17.45299168 85.21185779 -8.58355141 79.65009976 -1.7578125 71.51171875 C5.66279637 60.90849318 7.27018563 49.62246969 6 37 C3.06081201 25.40794393 -3.95954528 16.33964609 -14 10 C-31.89625885 1.2116586 -51.79127083 4.03982068 -65.75 18.6875 Z " fill="#000001" transform="translate(94,252)"/>
<path d="M0 0 C1.31339355 0.00241699 1.31339355 0.00241699 2.65332031 0.00488281 C10.05553779 0.14372544 16.45868178 1.51176007 23.3125 4.375 C24.04339844 4.65214844 24.77429688 4.92929688 25.52734375 5.21484375 C31.79169238 7.90665296 36.50955478 12.64841321 41.3125 17.375 C42.05113281 18.10074219 42.78976562 18.82648437 43.55078125 19.57421875 C53.2639086 29.76294179 57.3610686 42.96618382 57.6875 56.875 C57.255916 73.84488284 50.86431435 87.90524877 38.78881836 99.6628418 C33.53653863 104.49727133 28.06189671 107.95844465 21.3125 110.375 C20.58595215 110.63627686 19.8594043 110.89755371 19.11083984 111.16674805 C12.8097279 113.26567016 7.0581908 113.88569532 0.4375 113.8125 C-0.52776611 113.80492676 -1.49303223 113.79735352 -2.48754883 113.78955078 C-9.83051095 113.62012159 -16.01820089 112.58352816 -22.6875 109.375 C-23.59113281 108.98570313 -24.49476563 108.59640625 -25.42578125 108.1953125 C-38.52503566 101.93286838 -48.56141331 90.09668994 -53.73828125 76.64453125 C-58.57342786 61.49746059 -57.75437664 45.6054775 -51.0625 31.125 C-47.78680586 25.03577648 -43.58602948 20.21461246 -38.6875 15.375 C-38.06101562 14.72660156 -37.43453125 14.07820312 -36.7890625 13.41015625 C-26.8828077 3.85918907 -13.46671886 -0.02596745 0 0 Z M-31.69140625 30.73046875 C-35.58544165 35.97400285 -38.10298453 41.04961426 -39.6875 47.375 C-40.0278125 48.6125 -40.0278125 48.6125 -40.375 49.875 C-41.84420452 61.62863617 -39.37746901 72.11058777 -32.62890625 81.90234375 C-26.24286777 90.03586962 -18.40128998 94.13707001 -8.6875 97.375 C2.34398847 98.1670043 11.42237479 97.89805694 21.3125 92.375 C22.385 91.7975 23.4575 91.22 24.5625 90.625 C33.08033807 83.65585976 37.85507679 75.74726963 41.3125 65.375 C42.33906936 51.89761088 40.73667584 40.92532134 31.89453125 30.11328125 C25.06927572 22.61392641 15.8211924 16.84229074 5.50390625 16.1015625 C-9.38427724 15.63716638 -21.66881771 18.94953134 -31.69140625 30.73046875 Z " fill="#000001" transform="translate(295.6875,-0.375)"/>
<path d="M0 0 C1.31339355 0.00241699 1.31339355 0.00241699 2.65332031 0.00488281 C10.05553779 0.14372544 16.45868178 1.51176007 23.3125 4.375 C24.04339844 4.65214844 24.77429688 4.92929688 25.52734375 5.21484375 C31.79169238 7.90665296 36.50955478 12.64841321 41.3125 17.375 C42.05113281 18.10074219 42.78976562 18.82648438 43.55078125 19.57421875 C53.2639086 29.76294179 57.3610686 42.96618382 57.6875 56.875 C57.255916 73.84488284 50.86431435 87.90524877 38.78881836 99.6628418 C33.53653863 104.49727133 28.06189671 107.95844465 21.3125 110.375 C20.58595215 110.63627686 19.8594043 110.89755371 19.11083984 111.16674805 C12.8097279 113.26567016 7.0581908 113.88569532 0.4375 113.8125 C-0.52776611 113.80492676 -1.49303223 113.79735352 -2.48754883 113.78955078 C-9.83051095 113.62012159 -16.01820089 112.58352816 -22.6875 109.375 C-23.59113281 108.98570312 -24.49476563 108.59640625 -25.42578125 108.1953125 C-38.52503566 101.93286838 -48.56141331 90.09668994 -53.73828125 76.64453125 C-58.57342786 61.49746059 -57.75437664 45.6054775 -51.0625 31.125 C-47.78680586 25.03577648 -43.58602948 20.21461246 -38.6875 15.375 C-38.06101562 14.72660156 -37.43453125 14.07820312 -36.7890625 13.41015625 C-26.8828077 3.85918907 -13.46671886 -0.02596745 0 0 Z M-31.69140625 30.73046875 C-35.58544165 35.97400285 -38.10298453 41.04961426 -39.6875 47.375 C-40.0278125 48.6125 -40.0278125 48.6125 -40.375 49.875 C-41.84420452 61.62863617 -39.37746901 72.11058777 -32.62890625 81.90234375 C-25.46869048 91.02189422 -15.65030987 96.29389682 -4.2109375 98.15234375 C7.07695859 99.14833458 18.50810079 95.57859935 27.3125 88.375 C35.39915424 80.67573039 41.27931491 71.04923257 41.65576172 59.67553711 C41.8439538 46.4051003 37.92300249 36.44558324 28.76171875 26.73046875 C19.54510604 18.04177658 8.18632496 15.81019797 -4.0234375 16.03515625 C-14.97407 16.56830826 -24.67928807 22.4881544 -31.69140625 30.73046875 Z " fill="#000001" transform="translate(295.6875,119.625)"/>
<path d="M0 0 C11.22820876 8.93096743 18.8680787 20.92141145 22 35 C22.3169074 38.37974944 22.38113238 41.7316457 22.375 45.125 C22.37338867 46.05207764 22.37177734 46.97915527 22.37011719 47.93432617 C22.23397843 55.59880487 20.99572649 61.894347 18 69 C17.74605469 69.70640625 17.49210937 70.4128125 17.23046875 71.140625 C12.3451524 82.98089911 -0.58240582 93.8182047 -12 98.8125 C-28.13489898 104.98232301 -44.23100947 104.6177299 -60.1875 97.59765625 C-70.44964132 92.13253151 -81.14811236 82.75933863 -86 72 C-86.46148437 70.99324219 -86.92296875 69.98648438 -87.3984375 68.94921875 C-93.15777791 54.39176993 -93.27350057 37.78378917 -87.5390625 23.19140625 C-80.34422019 8.27215201 -67.8095469 -3.36563815 -52.125 -8.875 C-34.44126716 -14.35348978 -14.81714799 -10.95872288 0 0 Z M-65.75 18.6875 C-72.85165154 27.33800362 -76.46465725 38.22482552 -75.9375 49.375 C-74.51089557 61.1030155 -68.7547131 71.25135687 -59.75 78.75 C-50.60148695 85.51866337 -40.25039808 88.00601796 -29 87 C-16.98838801 84.50352482 -7.03406611 79.25363866 0 69 C5.95634066 57.73541792 8.58898538 44.64695515 5 32.0625 C0.32409681 20.94084241 -8.21695877 12.2033364 -19.3125 7.625 C-36.06991046 1.41855168 -53.46020959 5.76339783 -65.75 18.6875 Z " fill="#000001" transform="translate(93,131)"/>
<path d="M0 0 C1.37671875 0.56654297 1.37671875 0.56654297 2.78125 1.14453125 C17.5771544 8.18108923 26.68889289 20.95380178 32.08203125 36.0234375 C36.33330419 50.50494259 34.66168437 65.916918 28.1875 79.4375 C20.54229511 92.68811772 8.83181218 103.17234704 -5.94628906 107.58056641 C-22.8443889 112.08369951 -39.06515986 109.65183002 -54.203125 100.9453125 C-67.99267351 91.35425781 -76.40525326 77.97373371 -79.6875 61.5625 C-81.21622027 44.13508895 -77.47325215 28.63834182 -66.5234375 14.890625 C-49.42198177 -3.37110648 -23.34757695 -9.94782512 0 0 Z M-54.91796875 26.30859375 C-56.40694646 28.48875124 -57.73390664 30.68461009 -59 33 C-59.5775 33.99 -60.155 34.98 -60.75 36 C-65.31713078 46.96111387 -65.00227261 57.8873069 -61 69 C-55.46664405 80.11062742 -47.53832327 87.4727495 -36 92 C-25.91498529 95.29607798 -14.92629606 94.58050016 -5.2734375 90.22265625 C6.87757179 83.6878351 13.69119007 73.92642979 18 61 C19.06618832 47.00247044 17.18880396 36.04285921 7.8671875 24.9609375 C0.28721347 17.000379 -9.27305885 11.93419399 -20.34936523 11.45654297 C-33.82912644 11.34055605 -46.03788879 15.61994354 -54.91796875 26.30859375 Z " fill="#000001" transform="translate(319,245)"/>
<path d="M0 0 C2.44177661 2.45205778 4.25403283 5.02090751 6 8 C6.928125 9.5778125 6.928125 9.5778125 7.875 11.1875 C10.31715542 19.46369337 9.999446 27.48256896 6.0703125 35.1953125 C5.10078055 36.83007075 4.05428456 38.41857317 3 40 C2.34 40 1.68 40 1 40 C1 40.66 1 41.32 1 42 C-5.40611178 47.44606778 -12.79488199 49.38143908 -21.0625 48.875 C-28.60520562 47.84751069 -34.29100243 44.60311867 -39.45703125 39.03515625 C-44.25733583 32.70361528 -45.73608006 25.81684675 -45.453125 17.96484375 C-44.10043144 9.11402989 -39.06444553 3.23308168 -32.25 -2.1875 C-21.70526549 -8.06821732 -9.81738323 -6.86708153 0 0 Z M-26 13 C-28.44340191 15.93208229 -28.96659534 17.68822321 -29.375 21.5 C-28.96659534 25.31177679 -28.44340191 27.06791771 -26 30 C-22.58093877 32.33117811 -20.58956112 33 -16.4375 33 C-12.37697465 31.81875626 -10.70824581 30.18617154 -8 27 C-7.67 26.67 -7.34 26.34 -7 26 C-6.60086364 21.29019099 -6.55470541 18.89058918 -8.6875 14.625 C-11.11663284 11.86760596 -12.47387967 10.88153008 -16 10 C-20.43338303 10 -22.27033452 10.69871705 -26 13 Z " fill="#000001" transform="translate(314,155)"/>
<path d="M0 0 C2.44177661 2.45205778 4.25403283 5.02090751 6 8 C6.928125 9.5778125 6.928125 9.5778125 7.875 11.1875 C10.31715542 19.46369337 9.999446 27.48256896 6.0703125 35.1953125 C5.10078055 36.83007075 4.05428456 38.41857317 3 40 C2.34 40 1.68 40 1 40 C1 40.66 1 41.32 1 42 C-5.40611178 47.44606778 -12.79488199 49.38143908 -21.0625 48.875 C-28.60520562 47.84751069 -34.29100243 44.60311867 -39.45703125 39.03515625 C-44.25733583 32.70361528 -45.73608006 25.81684675 -45.453125 17.96484375 C-44.10043144 9.11402989 -39.06444553 3.23308168 -32.25 -2.1875 C-21.70526549 -8.06821732 -9.81738323 -6.86708153 0 0 Z M-26 13 C-28.44340191 15.93208229 -28.96659534 17.68822321 -29.375 21.5 C-28.96659534 25.31177679 -28.44340191 27.06791771 -26 30 C-22.58093877 32.33117811 -20.58956112 33 -16.4375 33 C-12.37697465 31.81875626 -10.70824581 30.18617154 -8 27 C-7.67 26.67 -7.34 26.34 -7 26 C-6.60086364 21.29019099 -6.55470541 18.89058918 -8.6875 14.625 C-11.11663284 11.86760596 -12.47387967 10.88153008 -16 10 C-20.43338303 10 -22.27033452 10.69871705 -26 13 Z " fill="#000001" transform="translate(314,35)"/>
<path d="M0 0 C1.51854196 0.88561171 3.02172745 1.7986914 4.5 2.75 C5.428125 3.306875 6.35625 3.86375 7.3125 4.4375 C12.5395227 9.96320971 15.16736956 16.75152682 15.5703125 24.30078125 C15.34669921 32.08997746 13.26635494 37.93441167 7.70703125 43.56640625 C0.87294809 49.89817769 -5.06720812 52.34422 -14.42578125 52.109375 C-20.77712567 51.36690526 -26.64781995 48.95154681 -31.5 44.75 C-31.5 44.09 -31.5 43.43 -31.5 42.75 C-32.16 42.75 -32.82 42.75 -33.5 42.75 C-34.32011312 41.19148245 -35.13076213 39.62798284 -35.9375 38.0625 C-36.38996094 37.19238281 -36.84242187 36.32226562 -37.30859375 35.42578125 C-40.3201098 28.66221241 -40.17425356 22.21454398 -37.875 15.25 C-34.83803444 7.50892345 -30.92134709 2.9194474 -23.33203125 -0.5234375 C-15.76996057 -3.52246766 -7.35650252 -3.60634559 0 0 Z M-20.5 16.75 C-22.45681804 19.03295438 -23.44374166 20.64058552 -23.59765625 23.67578125 C-23.23058429 28.42981073 -22.00368278 31.34936672 -18.5 34.75 C-14.88069302 35.95643566 -12.30768995 36.07268559 -8.5 35.75 C-5.10450873 34.02022143 -3.07940666 32.68208897 -1.0625 29.4375 C-0.30346326 25.81099111 -0.53993409 23.33424608 -1.5 19.75 C-3.68991597 17.16702219 -5.46831688 15.26584156 -8.5 13.75 C-13.48109259 13.37406848 -16.55673864 13.5734839 -20.5 16.75 Z " fill="#000001" transform="translate(70.5,152.25)"/>
<path d="M0 0 C6.70054733 3.84439831 12.21878919 9.31709304 14.5 16.8125 C15.98512964 24.79857448 15.65551785 31.66727337 11.875 38.9375 C6.37735164 45.59254802 0.3941582 51.1240747 -8.4765625 52.16015625 C-17.8843988 52.58978812 -23.82862118 49.92675255 -31.5 44.8125 C-31.5 44.1525 -31.5 43.4925 -31.5 42.8125 C-32.16 42.8125 -32.82 42.8125 -33.5 42.8125 C-34.32011312 41.25398245 -35.13076213 39.69048284 -35.9375 38.125 C-36.38996094 37.25488281 -36.84242187 36.38476562 -37.30859375 35.48828125 C-40.3201098 28.72471241 -40.17425356 22.27704398 -37.875 15.3125 C-34.83803444 7.57142345 -30.92134709 2.9819474 -23.33203125 -0.4609375 C-15.79067175 -3.45175385 -7.36489039 -3.53293238 0 0 Z M-20.5 16.8125 C-22.45681804 19.09545438 -23.44374166 20.70308552 -23.59765625 23.73828125 C-23.23058429 28.49231073 -22.00368278 31.41186672 -18.5 34.8125 C-14.88069302 36.01893566 -12.30768995 36.13518559 -8.5 35.8125 C-5.10450873 34.08272143 -3.07940666 32.74458897 -1.0625 29.5 C-0.30346326 25.87349111 -0.53993409 23.39674608 -1.5 19.8125 C-3.68991597 17.22952219 -5.46831688 15.32834156 -8.5 13.8125 C-13.48109259 13.43656848 -16.55673864 13.6359839 -20.5 16.8125 Z " fill="#000001" transform="translate(71.5,32.1875)"/>
<path d="M0 0 C5.89117661 6.14871439 8.82209638 12.02299341 9.20703125 20.55078125 C8.78104247 29.65431916 5.45550034 35.40908099 -0.84765625 41.9453125 C-6.64415155 47.20509527 -13.55712417 48.2080301 -21.16796875 48.05078125 C-29.03995614 46.85488936 -35.86828665 43.38469207 -40.73828125 36.98828125 C-45.68318681 29.30248517 -45.8395174 21.98610914 -45.16796875 13.05078125 C-44.29690181 9.95470637 -43.046884 7.64281615 -41.16796875 5.05078125 C-40.46671875 3.99890625 -39.76546875 2.94703125 -39.04296875 1.86328125 C-34.97066645 -2.75115418 -28.96260202 -5.13411738 -23.16796875 -6.82421875 C-14.22705721 -7.19675673 -6.8061889 -6.1194383 0 0 Z M-27.16796875 13.05078125 C-29.85264913 17.07780182 -29.84984612 20.31921755 -29.16796875 25.05078125 C-27.12515821 28.47978465 -25.07088788 30.96663705 -21.16796875 32.05078125 C-16.12967413 31.97080832 -14.13981817 31.8572095 -10.23046875 28.61328125 C-6.97955607 24.57426852 -6.81581512 22.24504726 -7.16796875 17.05078125 C-8.61388509 13.51631908 -9.79928694 12.28321109 -13.04296875 10.23828125 C-19.22323536 7.88977994 -21.9668076 9.00543369 -27.16796875 13.05078125 Z " fill="#000001" transform="translate(196.16796875,155.94921875)"/>
<path d="M0 0 C5.89117661 6.14871439 8.82209638 12.02299341 9.20703125 20.55078125 C8.78104247 29.65431916 5.45550034 35.40908099 -0.84765625 41.9453125 C-6.64415155 47.20509527 -13.55712417 48.2080301 -21.16796875 48.05078125 C-29.04849653 46.85359193 -35.81675229 43.37735176 -40.73828125 37.0234375 C-45.7231794 29.37517948 -45.89774373 22.09188244 -45.16796875 13.05078125 C-44.28136527 9.98621706 -43.00661687 7.64187943 -41.16796875 5.05078125 C-40.46671875 3.99890625 -39.76546875 2.94703125 -39.04296875 1.86328125 C-34.97066645 -2.75115418 -28.96260202 -5.13411738 -23.16796875 -6.82421875 C-14.22705721 -7.19675673 -6.8061889 -6.1194383 0 0 Z M-27.16796875 13.05078125 C-29.85264913 17.07780182 -29.84984612 20.31921755 -29.16796875 25.05078125 C-27.12515821 28.47978465 -25.07088788 30.96663705 -21.16796875 32.05078125 C-16.12967413 31.97080832 -14.13981817 31.8572095 -10.23046875 28.61328125 C-6.97955607 24.57426852 -6.81581512 22.24504726 -7.16796875 17.05078125 C-8.61388509 13.51631908 -9.79928694 12.28321109 -13.04296875 10.23828125 C-19.22323536 7.88977994 -21.9668076 9.00543369 -27.16796875 13.05078125 Z " fill="#000001" transform="translate(197.16796875,35.94921875)"/>
<path d="M0 0 C6.09262988 3.97912658 10.53258049 10.31649146 12.82421875 17.19140625 C13.68197404 27.34385407 12.2722952 34.06854982 6.63671875 42.44140625 C0.87731324 48.07282497 -5.74164921 51.25451943 -13.80078125 51.50390625 C-20.95872448 51.41944674 -26.58265679 48.90384693 -32.48828125 45.00390625 C-39.19360228 37.98670983 -41.57641543 30.67646954 -41.44921875 21.13671875 C-40.7585987 13.6977542 -37.70347011 7.6318596 -32.13671875 2.6640625 C-22.85595439 -4.30575456 -10.39569094 -5.51490443 0 0 Z M-22.17578125 15.19140625 C-24.58355448 18.08073413 -25.13693524 19.88618761 -25.61328125 23.62890625 C-25.09184851 27.87485852 -23.90661084 29.92958202 -21.17578125 33.19140625 C-17.44253749 35.53153179 -14.6331711 35.46344489 -10.37109375 34.8515625 C-6.49901484 33.6871829 -5.11091913 31.6247154 -3.17578125 28.19140625 C-2.18781872 23.75439597 -2.83675186 20.86946504 -4.86328125 16.81640625 C-7.29241409 14.05901221 -8.64966092 13.07293633 -12.17578125 12.19140625 C-16.60916428 12.19140625 -18.44611577 12.8901233 -22.17578125 15.19140625 Z " fill="#000001" transform="translate(310.17578125,273.80859375)"/>
<path d="M0 0 C6.58970448 4.84813973 10.65405479 10.52770428 12.1875 18.609375 C13.08119922 25.87225456 11.88831592 32.76275839 7.640625 38.8125 C2.32315164 45.16523366 -3.60621833 49.89823856 -12.0625 50.8671875 C-20.56791403 51.26587878 -27.5040123 48.7197737 -34.1875 43.484375 C-40.41168937 37.52477667 -42.02348583 30.92900772 -42.3125 22.484375 C-42.12707043 16.58899361 -41.24287041 12.40740943 -37.8125 7.609375 C-37.049375 6.536875 -36.28625 5.464375 -35.5 4.359375 C-26.30644279 -5.04798586 -11.35328844 -6.64764915 0 0 Z M-23.8125 15.609375 C-26.51397291 19.66158436 -26.57422353 22.85265464 -25.8125 27.609375 C-24.52951809 30.61753161 -23.49708373 31.41787808 -20.8125 33.609375 C-17.73229229 34.66253425 -15.04880321 34.95693573 -11.8125 34.609375 C-7.70379818 32.59237593 -5.47541268 30.85213353 -3.8125 26.609375 C-3.48657016 21.93771398 -4.21963405 18.47172547 -6.875 14.609375 C-13.13926543 10.34434322 -17.9699071 10.60143823 -23.8125 15.609375 Z " fill="#000001" transform="translate(193.8125,274.390625)"/>
<path d="M0 0 C6.35824141 4.54496516 9.76148862 10.73632662 11.53125 18.2578125 C12.57263248 25.05046638 11.53947993 31.03946168 8.375 37.125 C2.87735164 43.78004802 -3.1058418 49.3115747 -11.9765625 50.34765625 C-21.3843988 50.77728812 -27.32862118 48.11425255 -35 43 C-35 42.34 -35 41.68 -35 41 C-35.66 41 -36.32 41 -37 41 C-37.82011312 39.44148245 -38.63076213 37.87798284 -39.4375 36.3125 C-39.88996094 35.44238281 -40.34242187 34.57226562 -40.80859375 33.67578125 C-43.99677805 26.5154329 -43.63246719 19.45435512 -40.96875 12.203125 C-37.42160587 4.1362327 -31.99146759 0.27871347 -24.125 -3.3125 C-15.50133555 -5.20970618 -7.85232674 -4.07068472 0 0 Z M-24 15 C-25.95681804 17.28295438 -26.94374166 18.89058552 -27.09765625 21.92578125 C-26.73058429 26.67981073 -25.50368278 29.59936672 -22 33 C-18.38069302 34.20643566 -15.80768995 34.32268559 -12 34 C-8.60450873 32.27022143 -6.57940666 30.93208897 -4.5625 27.6875 C-3.80346326 24.06099111 -4.03993409 21.58424608 -5 18 C-7.18991597 15.41702219 -8.96831688 13.51584156 -12 12 C-16.98109259 11.62406848 -20.05673864 11.8234839 -24 15 Z " fill="#000001" transform="translate(75,275)"/>
</svg>
